<?xml version="1.0" encoding="UTF-8" standalone="no"?>
<svg
   width="74.667"
   height="96"
   viewBox="0 0 14.000062 18"
   fill="none"
   version="1.1"
   id="svg301"
   sodipodi:docname="bluetooth.svg"
   inkscape:version="1.2.2 (732a01da63, 2022-12-09)"
   xmlns:inkscape="http://www.inkscape.org/namespaces/inkscape"
   xmlns:sodipodi="http://sodipodi.sourceforge.net/DTD/sodipodi-0.dtd"
   xmlns="http://www.w3.org/2000/svg"
   xmlns:svg="http://www.w3.org/2000/svg">
  <defs
     id="defs305" />
  <sodipodi:namedview
     id="namedview303"
     pagecolor="#ffffff"
     bordercolor="#111111"
     borderopacity="1"
     inkscape:showpageshadow="0"
     inkscape:pageopacity="0"
     inkscape:pagecheckerboard="1"
     inkscape:deskcolor="#d1d1d1"
     showgrid="false"
     inkscape:zoom="6.4765625"
     inkscape:cx="40.067551"
     inkscape:cy="52.342581"
     inkscape:window-width="1920"
     inkscape:window-height="1009"
     inkscape:window-x="-8"
     inkscape:window-y="-8"
     inkscape:window-maximized="1"
     inkscape:current-layer="svg301" />
  <path
     d="M 10,0 H 8 v 2 h 2 v 2 h 2 v 2 h -2 v 2 h 2 V 6 h 2 V 4 H 12 V 2 H 10 Z M 8,0 H 6 V 6 H 4 V 4 H 2 V 2 H 0 v 2 h 2 v 2 h 2 v 2 h 2 v 2 H 4 v 2 H 2 v 2 H 0 v 2 h 2 v -2 h 2 v -2 h 2 v 6 h 2 z m 2,8 H 8 v 2 h 2 v 2 h 2 v 2 h -2 v 2 H 8 v 2 h 2 v -2 h 2 v -2 h 2 v -2 h -2 v -2 h -2 z"
     fill="#000000"
     id="path299"
     style="fill:#ffffff;fill-opacity:1" />
</svg>
